<?xml version="1.0" encoding="UTF-8" standalone="no"?>
<!-- Created with Inkscape (http://www.inkscape.org/) -->

<svg
   xmlns:dc="http://purl.org/dc/elements/1.1/"
   xmlns:cc="http://creativecommons.org/ns#"
   xmlns:rdf="http://www.w3.org/1999/02/22-rdf-syntax-ns#"
   xmlns:svg="http://www.w3.org/2000/svg"
   xmlns="http://www.w3.org/2000/svg"
   xmlns:sodipodi="http://sodipodi.sourceforge.net/DTD/sodipodi-0.dtd"
   xmlns:inkscape="http://www.inkscape.org/namespaces/inkscape"
   version="1.1"
   id="svg2"
   width="691.69348"
   height="691.40472"
   viewBox="0 0 691.69348 691.40473"
   sodipodi:docname="icon.svg"
   inkscape:version="0.92.3 (2405546, 2018-03-11)">
  <metadata
     id="metadata8">
    <rdf:RDF>
      <cc:Work
         rdf:about="">
        <dc:format>image/svg+xml</dc:format>
        <dc:type
           rdf:resource="http://purl.org/dc/dcmitype/StillImage" />
        <dc:title></dc:title>
      </cc:Work>
    </rdf:RDF>
  </metadata>
  <defs
     id="defs6" />
  <sodipodi:namedview
     pagecolor="#ffffff"
     bordercolor="#666666"
     borderopacity="1"
     objecttolerance="10"
     gridtolerance="10"
     guidetolerance="10"
     inkscape:pageopacity="0"
     inkscape:pageshadow="2"
     inkscape:window-width="1920"
     inkscape:window-height="1048"
     id="namedview4"
     showgrid="false"
     fit-margin-top="0"
     fit-margin-left="0"
     fit-margin-right="0"
     fit-margin-bottom="0"
     inkscape:zoom="0.65677178"
     inkscape:cx="191.01606"
     inkscape:cy="591.54341"
     inkscape:window-x="0"
     inkscape:window-y="0"
     inkscape:window-maximized="1"
     inkscape:current-layer="svg2" />
  <g
     id="g817"
     transform="translate(-13.462268,-15.303717)">
    <path
       style="fill:#b3c6e3;stroke-width:1.33333337"
       d="M 332.00001,705.80305 C 219.83354,695.30256 125.12171,637.91826 66.04249,544.66387 55.731162,528.38782 40.058685,495.98766 33.473637,477.33335 -0.28924088,381.68892 9.0046179,276.21301 58.827567,189.59187 136.20083,55.072339 291.9408,-11.648809 441.91467,25.472078 565.69445,56.109515 662.89167,152.67291 694.05609,275.9693 c 27.35052,108.20738 1.52603,221.27322 -70.20266,307.36405 -4.88794,5.86667 -11.05458,12.73438 -13.70364,15.26156 -2.64904,2.52719 -4.81644,5.50836 -4.81644,6.62483 0,1.11648 21.9,23.95948 48.66667,50.76225 26.76667,26.80277 48.66667,49.26418 48.66667,49.91426 0,1.60195 -29.78427,-0.004 -47.62951,-2.56872 -19.24575,-2.76563 -49.71553,-10.37684 -67.70383,-16.91212 -8.06666,-2.93069 -23.95231,-9.80047 -35.30143,-15.26617 l -20.63474,-9.93767 -12.69859,6.59717 c -39.30317,20.41882 -80.8629,32.717 -126.69858,37.49214 -11.6649,1.21524 -49.0414,1.52806 -60,0.50217 z"
       id="path831"
       inkscape:connector-curvature="0" />
    <path
       style="fill:#e2b0c5;stroke-width:1.33333337"
       d="m 360.00001,705.54006 c 0,-0.61964 -8.06131,-1.51324 -17.914,-1.98576 C 256.62846,699.45582 177.27722,664.19357 116.66667,603.38201 62.093085,548.62743 29.389556,482.22956 18.463291,404.00001 c -2.313532,-16.56436 -2.347205,-70.07687 -0.05412,-86 C 27.96027,251.67747 52.305143,194.86142 92.647408,144.74284 104.75156,129.70544 134.42328,100.64341 148.90043,89.645703 176.55046,68.641101 210.53901,49.856802 240.79981,38.856107 364.04568,-5.9474231 499.43816,22.293338 596.08855,112.9638 c 40.72916,38.20919 74.77425,93.81949 91.68318,149.75816 7.59716,25.13314 13.20388,59.76228 13.8628,85.62152 0.29148,11.43897 0.73269,14.20349 2.17883,13.65223 1.4949,-0.56986 1.65408,1.94537 0.90638,14.3232 -4.76306,78.85108 -31.84346,148.17581 -80.86631,207.01444 -4.88794,5.86667 -11.05458,12.73438 -13.70364,15.26156 -2.64904,2.52719 -4.81644,5.50836 -4.81644,6.62483 0,1.11648 21.9,23.95948 48.66667,50.76225 26.76667,26.80277 48.66667,49.26418 48.66667,49.91426 0,1.60195 -29.78427,-0.004 -47.62951,-2.56872 -19.24575,-2.76563 -49.71553,-10.37684 -67.70383,-16.91212 -8.06666,-2.93069 -23.95231,-9.80047 -35.30143,-15.26617 l -20.63474,-9.93767 -12.69859,6.59717 c -31.48395,16.35658 -67.54732,28.48016 -101.36524,34.07642 -25.70699,4.25405 -57.33334,6.27018 -57.33334,3.6549 z"
       id="path829"
       inkscape:connector-curvature="0" />
    <path
       style="fill:#a7bde0;stroke-width:1.33333337"
       d="m 365.27657,703.96493 c -0.65332,-0.40377 20.39219,-22.30793 46.76779,-48.67591 26.37561,-26.36797 47.95565,-48.54191 47.95565,-49.27539 0,-0.73349 -22.44848,21.10888 -49.8855,48.53859 l -49.8855,49.8722 -18.02851,-0.86462 C 256.62053,699.45545 177.31139,664.22786 116.66667,603.38201 62.093085,548.62743 29.389556,482.22956 18.463291,404.00001 c -2.313532,-16.56436 -2.347205,-70.07687 -0.05412,-86 C 27.96027,251.67747 52.305143,194.86142 92.647408,144.74284 104.75156,129.70544 134.42328,100.64341 148.90043,89.645703 176.55046,68.641101 210.53901,49.856802 240.79981,38.856107 364.04568,-5.9474231 499.43816,22.293338 596.08855,112.9638 c 40.72916,38.20919 74.77425,93.81949 91.68318,149.75816 7.59411,25.12308 13.20335,59.75876 13.8628,85.5995 l 0.36549,14.32147 -85.32943,85.3452 c -46.93118,46.93987 -84.73296,85.34522 -84.00393,85.34522 0.72901,0 38.95315,-37.62411 84.94252,-83.60914 45.98936,-45.98501 84.05912,-83.16704 84.59946,-82.6267 1.46541,1.46542 -1.96288,39.45745 -5.01184,55.54088 -4.91631,25.93372 -13.02195,52.57099 -23.13518,76.02829 -14.19507,32.925 -40.13984,72.52653 -62.91932,96.03867 -4.72661,4.87863 -7.14228,8.48871 -7.14228,10.67371 0,2.56272 10.58741,13.88597 47.30352,50.59115 26.01694,26.0092 46.86694,47.68252 46.33334,48.16295 -3.02296,2.72172 -54.19902,-3.90594 -78.30353,-10.14086 -25.99997,-6.72521 -59.14716,-19.5872 -77.41544,-30.03925 -3.80004,-2.17416 -8.19612,-3.95303 -9.76907,-3.95303 -1.57294,0 -9.29992,3.22951 -17.17104,7.17669 -34.23826,17.1697 -66.99851,27.77439 -103.46755,33.49309 -15.30746,2.40036 -44.33412,4.46913 -46.23368,3.29513 z"
       id="path827"
       inkscape:connector-curvature="0" />
    <path
       style="fill:#f09ab1;stroke-width:1.33333337"
       d="m 365.27657,703.96493 c -0.65332,-0.40377 20.39219,-22.30793 46.76779,-48.67591 26.37561,-26.36797 47.95565,-48.54191 47.95565,-49.27539 0,-0.73349 -22.64997,21.16339 -50.33328,48.65972 l -50.33329,49.99334 48.33329,-48.67343 c 26.58331,-26.77039 48.33328,-49.4086 48.33328,-50.30716 0,-0.89855 -4.26977,-6.29551 -9.48837,-11.99324 -52.48319,-57.30171 -85.4468,-136.46666 -88.75799,-213.15987 -0.62248,-14.41787 -0.41915,-19.04298 0.87231,-19.84114 1.14243,-0.70606 28.97115,26.24387 86.53291,83.80036 46.66689,46.66263 85.74539,84.84114 86.84108,84.84114 1.09571,0 39.79396,-37.64999 85.99614,-83.66666 l 84.00393,-83.66665 -85.32943,85.66665 c -46.93118,47.11667 -84.73296,85.66666 -84.00393,85.66666 0.72901,0 38.95315,-37.62411 84.94252,-83.60914 45.98936,-45.98501 84.05912,-83.16704 84.59946,-82.6267 1.46541,1.46542 -1.96288,39.45745 -5.01184,55.54088 -4.91631,25.93372 -13.02195,52.57099 -23.13518,76.02829 -14.19507,32.925 -40.13984,72.52653 -62.91932,96.03867 -4.72661,4.87863 -7.14228,8.48871 -7.14228,10.67371 0,2.56272 10.58741,13.88597 47.30352,50.59115 26.01694,26.0092 46.86694,47.68252 46.33334,48.16295 -3.02296,2.72172 -54.19902,-3.90594 -78.30353,-10.14086 -25.99997,-6.72521 -59.14716,-19.5872 -77.41544,-30.03925 -3.80004,-2.17416 -8.19612,-3.95303 -9.76907,-3.95303 -1.57294,0 -9.29992,3.22951 -17.17104,7.17669 -34.23826,17.1697 -66.99851,27.77439 -103.46755,33.49309 -15.30746,2.40036 -44.33412,4.46913 -46.23368,3.29513 z"
       id="path825"
       inkscape:connector-curvature="0" />
    <path
       style="fill:#a8b5d7;stroke-width:1.33333337"
       d="m 407.66673,655.99326 c 26.58331,-26.77039 48.33328,-49.4086 48.33328,-50.30716 0,-0.89855 -4.26977,-6.29551 -9.48837,-11.99324 -52.48319,-57.30171 -85.4468,-136.46666 -88.75799,-213.15987 -0.62248,-14.41787 -0.41915,-19.04298 0.87231,-19.84114 1.14243,-0.70606 28.97115,26.24387 86.53291,83.80036 46.66689,46.66263 85.74539,84.84114 86.84108,84.84114 1.09571,0 39.79396,-37.64999 85.99614,-83.66666 l 84.00393,-83.66665 -85.32667,85.66389 -85.32665,85.66389 34.99332,35.01203 c 19.24633,19.25661 34.99333,36.00752 34.99333,37.22422 0,6.23167 -61.00487,53.10262 -69.11568,53.10262 -7.33296,0 -42.71613,-25.40715 -63.90032,-45.8841 l -8.34934,-8.07058 -50.31728,49.97734 -50.31729,49.97734 z"
       id="path823"
       inkscape:connector-curvature="0" />
    <path
       style="fill:#a28fb3;stroke-width:1.33333337"
       d="M 520.00002,653.11974 C 469.89956,621.37747 427.46153,575.16939 398.91505,521.27799 382.0034,489.35135 369.05032,449.86333 363.28776,412.66668 c -2.51253,-16.21808 -4.16919,-48.66667 -2.48468,-48.66667 2.23072,0 240.53027,239.31732 240.53027,241.55757 0,6.34715 -61.06592,53.14844 -69.25976,53.08111 -1.8738,-0.0153 -7.30691,-2.49892 -12.07357,-5.51895 z"
       id="path821"
       inkscape:connector-curvature="0" />
    <path
       style="fill:#e85d84;stroke-width:1.33333337"
       d="m 520.00002,653.11974 c -18.17991,-11.51829 -43.79791,-31.69056 -54.62868,-43.01603 l -4.6287,-4.84009 35.62544,-35.62544 35.62543,-35.62543 34.66992,34.65068 c 19.06846,19.05788 34.66992,35.65467 34.66992,36.88176 0,6.3575 -61.05445,53.16092 -69.25976,53.0935 -1.8738,-0.0154 -7.30691,-2.49892 -12.07357,-5.51895 z"
       id="path819"
       inkscape:connector-curvature="0" />
  </g>
</svg>
